STARTFONT 2.1
COMMENT
COMMENT Converted from OpenType font "icons.ttf" by "otf2bdf 3.0".
COMMENT
FONT -FreeType-Material Icons-Medium-R-Normal--22-160-100-100-P-151-ISO10646-1
SIZE 16 100 100
FONTBOUNDINGBOX 20 21 0 0
STARTPROPERTIES 19
FOUNDRY "FreeType"
FAMILY_NAME "Material Icons"
WEIGHT_NAME "Medium"
SLANT "R"
SETWIDTH_NAME "Normal"
ADD_STYLE_NAME ""
PIXEL_SIZE 22
POINT_SIZE 160
RESOLUTION_X 100
RESOLUTION_Y 100
SPACING "P"
AVERAGE_WIDTH 151
CHARSET_REGISTRY "ISO10646"
CHARSET_ENCODING "1"
FONT_ASCENT 22
FONT_DESCENT 0
COPYRIGHT "Copyright 2018 Google, Inc. All Rights Reserved."
_OTF_FONTFILE "icons.ttf"
_OTF_PSNAME "MaterialIcons-Regular"
ENDPROPERTIES
CHARS 3
STARTCHAR E1A4
ENCODING 57764
SWIDTH 990 0
DWIDTH 22 0
BBX 10 18 6 2
BITMAP
1E00
1E00
FFC0
FFC0
FFC0
FFC0
FFC0
FFC0
FFC0
FFC0
FFC0
FFC0
FFC0
FFC0
FFC0
FFC0
FFC0
7F80
ENDCHAR
STARTCHAR E425
ENCODING 58405
SWIDTH 990 0
DWIDTH 22 0
BBX 16 19 3 2
BITMAP
07E0
07E0
0000
0FF2
1FFF
3FFE
7E7E
FE7F
FE7F
FE7F
FE7F
FE7F
FFFF
FFFF
7FFE
7FFE
3FFC
1FF8
07E0
ENDCHAR
STARTCHAR E8B8
ENCODING 59576
SWIDTH 990 0
DWIDTH 22 0
BBX 18 18 2 2
BITMAP
01E000
01E000
03F000
3FFF00
7FFF80
FFFFC0
FE1FC0
7C0F80
3C0F00
3C0F00
7C0F80
FE1FC0
FFFFC0
7FFF80
3FFF00
03F000
01E000
01E000
ENDCHAR
ENDFONT
